<svg width="126" height="126" viewBox="0 0 126 126" fill="none" xmlns="http://www.w3.org/2000/svg">
<g filter="url(#filter0_d_454_2289)">
<rect x="12" y="8" width="102" height="102" rx="48" fill="white"/>
</g>
<g clip-path="url(#clip0_454_2289)">
<path d="M63.0033 109.944C91.1544 109.944 113.975 87.1231 113.975 58.972C113.975 30.821 91.1544 8 63.0033 8C34.8522 8 12.0312 30.821 12.0312 58.972C12.0312 87.1231 34.8522 109.944 63.0033 109.944Z" fill="url(#paint0_linear_454_2289)"/>
<path d="M42.1158 12.46C16.4368 23.9957 4.97158 54.1644 16.5073 79.8432C28.043 105.522 58.2115 116.987 83.8905 105.451C109.57 93.9154 121.035 63.7472 109.499 38.0682C104.484 26.9048 95.62 17.9184 84.5262 12.7507C79.9121 14.0041 75.3947 15.5905 71.0102 17.4974C59.346 22.5287 49.9992 26.3792 44.6748 26.3792C42.5942 26.6146 40.5865 25.5311 39.6414 23.663C38.3204 20.8669 38.6572 17.5688 40.5163 15.0976L42.1158 12.46Z" fill="url(#paint1_linear_454_2289)"/>
<path d="M113.733 53.998C113.018 46.591 110.681 39.4329 106.886 33.0316C102.161 25.0597 95.3629 18.5186 87.2152 14.104C81.9342 15.3883 76.7744 17.1288 71.7941 19.3052C51.0802 28.238 41.6632 31.5746 37.9167 24.5935C36.2683 21.1868 36.6231 17.1498 38.8406 14.0828C14.0534 27.4275 4.77766 58.3395 18.1224 83.1264C31.4671 107.913 62.3791 117.189 87.1663 103.845C103.676 94.9564 113.972 77.7218 113.975 58.972C113.975 57.2941 113.895 55.636 113.733 53.998Z" fill="url(#paint2_linear_454_2289)"/>
<mask id="mask0_454_2289" style="mask-type:luminance" maskUnits="userSpaceOnUse" x="12" y="8" width="102" height="102">
<path d="M63.0033 109.944C91.1544 109.944 113.975 87.1231 113.975 58.972C113.975 30.821 91.1544 8 63.0033 8C34.8522 8 12.0312 30.821 12.0312 58.972C12.0312 87.1231 34.8522 109.944 63.0033 109.944Z" fill="white"/>
</mask>
<g mask="url(#mask0_454_2289)">
<path d="M95.2095 19.4688C87.8526 22.8944 79.0302 29.268 64.3459 41.7308C59.8261 45.6728 54.7193 48.8858 49.2093 51.2542C45.0963 53.0247 40.676 53.9719 36.1988 54.0427C31.2467 54.2213 26.4065 52.5434 22.6274 49.3386C19.8366 46.7729 18.6219 42.7546 18.7874 37.4707C18.8428 35.7185 18.9383 34.2851 19.04 33.1637C4.78686 57.4393 12.912 88.6735 37.1879 102.927C61.4638 117.18 92.6983 109.055 106.951 84.779C119.684 63.0929 114.698 35.3616 95.2095 19.4688Z" fill="url(#paint3_linear_454_2289)"/>
</g>
<path d="M63.0036 109.944C91.1547 109.946 113.977 87.1276 113.98 58.9765C113.981 48.8672 110.975 38.9863 105.346 30.5893C104.349 30.3997 103.337 30.3044 102.322 30.3047H101.974C97.5627 30.3938 93.3768 32.6536 88.3985 37.6319C82.4092 44.0911 76.8742 50.9568 71.8326 58.1799C67.1407 64.7837 61.4375 70.6072 54.9334 75.436C49.3395 79.7634 42.5301 82.2294 35.4622 82.4873C31.7227 82.4692 28.0302 81.654 24.6307 80.0959C21.1065 78.5704 18.0869 76.077 15.9231 72.9045C14.7163 71.1293 13.6436 69.2664 12.7139 67.3315C16.8073 91.9189 38.0777 109.942 63.0036 109.944Z" fill="url(#paint4_linear_454_2289)"/>
<path d="M113.734 53.9981C113.019 46.5911 110.681 39.4329 106.886 33.0316C105.317 32.4857 103.662 32.2293 102.001 32.2756C94.0455 32.435 86.8902 41.0916 73.4167 59.3502C60.6399 76.6785 42.5764 90.3283 23.8126 81.8905C19.9516 80.2202 16.6468 77.4838 14.2852 74.0025C22.5627 100.909 51.0853 116.011 77.9918 107.733C99.3953 101.148 113.994 81.3655 113.976 58.972C113.976 57.2941 113.895 55.6361 113.734 53.9981Z" fill="url(#paint5_linear_454_2289)"/>
</g>
<path d="M61.6694 84.8056C62.0368 85.1731 62.5185 85.3569 63 85.3569C63.4815 85.3569 63.9633 85.1732 64.3306 84.8056L79.4487 69.6875C79.987 69.1493 80.1479 68.3398 79.8567 67.6366C79.5654 66.9334 78.8793 66.4748 78.1181 66.4748H72.441V49.0828C72.441 48.0435 71.5984 47.2009 70.5591 47.2009H55.441C54.4016 47.2009 53.559 48.0435 53.559 49.0828V66.4749H47.8819C47.1207 66.4749 46.4345 66.9335 46.1433 67.6367C45.8521 68.3399 46.013 69.1494 46.5513 69.6876L61.6694 84.8056Z" fill="white"/>
<path d="M55.4405 43.4062H70.5586C71.5979 43.4062 72.4405 42.5636 72.4405 41.5243C72.4405 40.4849 71.5979 39.6423 70.5586 39.6423H55.4405C54.4012 39.6423 53.5586 40.4849 53.5586 41.5243C53.5586 42.5636 54.4012 43.4062 55.4405 43.4062Z" fill="white"/>
<path d="M55.4405 35.8469H70.5586C71.5979 35.8469 72.4405 35.0043 72.4405 33.9649C72.4405 32.9256 71.5979 32.083 70.5586 32.083H55.4405C54.4012 32.083 53.5586 32.9256 53.5586 33.9649C53.5586 35.0043 54.4012 35.8469 55.4405 35.8469Z" fill="white"/>
<defs>
<filter id="filter0_d_454_2289" x="0" y="0" width="126" height="126" filterUnits="userSpaceOnUse" color-interpolation-filters="sRGB">
<feFlood flood-opacity="0" result="BackgroundImageFix"/>
<feColorMatrix in="SourceAlpha" type="matrix" values="0 0 0 0 0 0 0 0 0 0 0 0 0 0 0 0 0 0 127 0" result="hardAlpha"/>
<feOffset dy="4"/>
<feGaussianBlur stdDeviation="6"/>
<feColorMatrix type="matrix" values="0 0 0 0 0 0 0 0 0 0 0 0 0 0 0 0 0 0 0.25 0"/>
<feBlend mode="normal" in2="BackgroundImageFix" result="effect1_dropShadow_454_2289"/>
<feBlend mode="normal" in="SourceGraphic" in2="effect1_dropShadow_454_2289" result="shape"/>
</filter>
<linearGradient id="paint0_linear_454_2289" x1="117.208" y1="58.972" x2="11.5534" y2="58.972" gradientUnits="userSpaceOnUse">
<stop stop-color="white"/>
<stop offset="1" stop-color="#F78B1F"/>
</linearGradient>
<linearGradient id="paint1_linear_454_2289" x1="63.7693" y1="59.335" x2="23.8094" y2="44.736" gradientUnits="userSpaceOnUse">
<stop stop-color="#F4841A"/>
<stop offset="1" stop-color="#F26F11"/>
</linearGradient>
<linearGradient id="paint2_linear_454_2289" x1="12.9087" y1="62.014" x2="113.676" y2="62.014" gradientUnits="userSpaceOnUse">
<stop stop-color="#F4841A"/>
<stop offset="1" stop-color="#F26F11"/>
</linearGradient>
<linearGradient id="paint3_linear_454_2289" x1="74.331" y1="64.2639" x2="22.9875" y2="55.1082" gradientUnits="userSpaceOnUse">
<stop stop-color="#F16430"/>
<stop offset="1" stop-color="#E73D14"/>
</linearGradient>
<linearGradient id="paint4_linear_454_2289" x1="76.5173" y1="70.9026" x2="17.5025" y2="77.3356" gradientUnits="userSpaceOnUse">
<stop offset="0.003" stop-color="#CE3814"/>
<stop offset="0.999" stop-color="#D63914"/>
</linearGradient>
<linearGradient id="paint5_linear_454_2289" x1="11.5642" y1="71.135" x2="112.67" y2="71.135" gradientUnits="userSpaceOnUse">
<stop offset="0.003" stop-color="#F34647"/>
<stop offset="0.999" stop-color="#E33738"/>
</linearGradient>
<clipPath id="clip0_454_2289">
<rect width="102" height="102" fill="white" transform="translate(12 8)"/>
</clipPath>
</defs>
</svg>
